<?xml version="1.0" encoding="UTF-8" standalone="no"?>
<!DOCTYPE svg PUBLIC "-//W3C//DTD SVG 1.1//EN" "http://www.w3.org/Graphics/SVG/1.1/DTD/svg11.dtd">
<svg width="100%" height="100%" viewBox="0 0 256 256" version="1.1" xmlns="http://www.w3.org/2000/svg" xmlns:xlink="http://www.w3.org/1999/xlink" xml:space="preserve" xmlns:serif="http://www.serif.com/" style="fill-rule:evenodd;clip-rule:evenodd;stroke-linejoin:round;stroke-miterlimit:2;">
    <g transform="matrix(2.4543,0,0,2.4543,-153.386,-648.661)">
        <path d="M159.8,359.1L122,268.3C121.1,265.9 118.8,264.2 116.2,264.3C113.5,264.2 111.1,265.9 110.2,268.3L68.9,367.8L83.1,367.8L99.4,326.8L148.3,366.3C149.7,367.7 151.6,368.5 153.5,368.6C157.2,368.7 160.3,365.8 160.4,362L160.4,361.8C160.3,360.9 160.1,360 159.8,359.1ZM116.3,284.7L140.8,345.2L103.8,316L116.3,284.7Z" style="fill-rule:nonzero;"/>
    </g>
</svg>
